<svg width="38" height="41" viewBox="0 0 38 41" fill="none" xmlns="http://www.w3.org/2000/svg">
<path d="M37.7599 7.51999C37.6917 7.2646 37.5734 7.02529 37.4121 6.81588C37.2507 6.60647 37.0495 6.43113 36.8199 6.29999L26.4199 0.299989C26.1929 0.166924 25.9418 0.0799859 25.681 0.0441595C25.4203 0.00833311 25.155 0.0243226 24.9005 0.0912114C24.6459 0.1581 24.4071 0.274573 24.1976 0.433952C23.9882 0.593331 23.8123 0.792482 23.6799 1.01999L18.9999 9.13999L14.3199 1.01999C14.1876 0.792482 14.0117 0.593331 13.8022 0.433952C13.5928 0.274573 13.354 0.1581 13.0994 0.0912114C12.8449 0.0243226 12.5796 0.00833311 12.3189 0.0441595C12.0581 0.0799859 11.807 0.166924 11.5799 0.299989L1.17994 6.29999C0.950407 6.43113 0.749147 6.60647 0.5878 6.81588C0.426453 7.02529 0.308222 7.2646 0.239943 7.51999C0.107576 8.02689 0.17939 8.56548 0.439943 9.01999L8.43994 22.68C7.54744 24.3151 7.05402 26.138 6.99994 28C6.99518 29.8166 7.40291 31.6105 8.19238 33.2466C8.98185 34.8826 10.1325 36.3181 11.5575 37.4447C12.9824 38.5714 14.6446 39.3598 16.4187 39.7505C18.1927 40.1413 20.0323 40.1242 21.7988 39.7005C23.5653 39.2768 25.2125 38.4575 26.6163 37.3046C28.0201 36.1516 29.1437 34.6949 29.9026 33.0445C30.6615 31.394 31.0358 29.5928 30.9972 27.7766C30.9586 25.9605 30.5082 24.1767 29.6799 22.56L37.4799 9.03999C37.6251 8.81787 37.7246 8.56909 37.7727 8.30813C37.8208 8.04717 37.8164 7.77925 37.7599 7.51999ZM4.99994 8.75999L11.9199 4.75999L18.3599 16C15.6148 16.1696 13.0135 17.2864 10.9999 19.16L4.99994 8.75999ZM18.9999 36C16.8782 36 14.8434 35.1571 13.3431 33.6568C11.8428 32.1566 10.9999 30.1217 10.9999 28C10.9999 25.8783 11.8428 23.8434 13.3431 22.3431C14.8434 20.8428 16.8782 20 18.9999 20C21.1217 20 23.1565 20.8428 24.6568 22.3431C26.1571 23.8434 26.9999 25.8783 26.9999 28C26.9999 30.1217 26.1571 32.1566 24.6568 33.6568C23.1565 35.1571 21.1217 36 18.9999 36ZM26.9999 19.1C25.9141 18.1082 24.6524 17.3281 23.2799 16.8L21.3199 13.14L26.1599 4.75999L33.0799 8.75999L26.9999 19.1Z" fill="white"/>
</svg>
