<svg width="44" height="37" viewBox="0 0 44 37" fill="none" xmlns="http://www.w3.org/2000/svg">
<path d="M43.86 17.8L43.74 17.58C43.7056 17.481 43.6585 17.3869 43.6 17.3L38.8 10.9C38.2411 10.1548 37.5164 9.55 36.6833 9.13344C35.8501 8.71687 34.9315 8.5 34 8.5H30V6.5C30 4.9087 29.3679 3.38258 28.2426 2.25736C27.1174 1.13214 25.5913 0.5 24 0.5H6C4.4087 0.5 2.88258 1.13214 1.75736 2.25736C0.632141 3.38258 0 4.9087 0 6.5V28.5C0 29.0304 0.210714 29.5391 0.585786 29.9142C0.960859 30.2893 1.46957 30.5 2 30.5H4C4 32.0913 4.63214 33.6174 5.75736 34.7426C6.88258 35.8679 8.4087 36.5 10 36.5C11.5913 36.5 13.1174 35.8679 14.2426 34.7426C15.3679 33.6174 16 32.0913 16 30.5H28C28 32.0913 28.6321 33.6174 29.7574 34.7426C30.8826 35.8679 32.4087 36.5 34 36.5C35.5913 36.5 37.1174 35.8679 38.2426 34.7426C39.3679 33.6174 40 32.0913 40 30.5H42C42.5304 30.5 43.0391 30.2893 43.4142 29.9142C43.7893 29.5391 44 29.0304 44 28.5V18.5C43.9957 18.2602 43.9483 18.023 43.86 17.8ZM10 32.5C9.60444 32.5 9.21776 32.3827 8.88886 32.1629C8.55996 31.9432 8.30362 31.6308 8.15224 31.2654C8.00087 30.8999 7.96126 30.4978 8.03843 30.1098C8.1156 29.7219 8.30608 29.3655 8.58579 29.0858C8.86549 28.8061 9.22186 28.6156 9.60982 28.5384C9.99778 28.4613 10.3999 28.5009 10.7654 28.6522C11.1308 28.8036 11.4432 29.06 11.6629 29.3889C11.8827 29.7178 12 30.1044 12 30.5C12 31.0304 11.7893 31.5391 11.4142 31.9142C11.0391 32.2893 10.5304 32.5 10 32.5ZM26 26.5H14.44C13.8776 25.8813 13.1922 25.3869 12.4276 25.0487C11.663 24.7104 10.8361 24.5356 10 24.5356C9.16391 24.5356 8.33704 24.7104 7.57243 25.0487C6.80783 25.3869 6.12236 25.8813 5.56 26.5H4V6.5C4 5.96957 4.21071 5.46086 4.58579 5.08579C4.96086 4.71071 5.46957 4.5 6 4.5H24C24.5304 4.5 25.0391 4.71071 25.4142 5.08579C25.7893 5.46086 26 5.96957 26 6.5V26.5ZM30 12.5H34C34.3105 12.5 34.6167 12.5723 34.8944 12.7111C35.1721 12.85 35.4137 13.0516 35.6 13.3L38 16.5H30V12.5ZM34 32.5C33.6044 32.5 33.2178 32.3827 32.8889 32.1629C32.56 31.9432 32.3036 31.6308 32.1522 31.2654C32.0009 30.8999 31.9613 30.4978 32.0384 30.1098C32.1156 29.7219 32.3061 29.3655 32.5858 29.0858C32.8655 28.8061 33.2219 28.6156 33.6098 28.5384C33.9978 28.4613 34.3999 28.5009 34.7654 28.6522C35.1308 28.8036 35.4432 29.06 35.6629 29.3889C35.8827 29.7178 36 30.1044 36 30.5C36 31.0304 35.7893 31.5391 35.4142 31.9142C35.0391 32.2893 34.5304 32.5 34 32.5ZM40 26.5H38.44C37.3758 25.3281 35.8915 24.6243 34.3106 24.5418C32.7297 24.4594 31.1803 25.0051 30 26.06V20.5H40V26.5Z" fill="white"/>
</svg>
