<svg width="40" height="40" viewBox="0 0 40 40" fill="none" xmlns="http://www.w3.org/2000/svg">
<path fill-rule="evenodd" clip-rule="evenodd" d="M15.4142 23.4142C15.0391 23.7893 14.5304 24 14 24H10C9.46957 24 8.96086 23.7893 8.58579 23.4142C8.21071 23.0391 8 22.5304 8 22C8 21.4696 8.21071 20.9609 8.58579 20.5858C8.96086 20.2107 9.46957 20 10 20H14C14.5304 20 15.0391 20.2107 15.4142 20.5858C15.7893 20.9609 16 21.4696 16 22C16 22.5304 15.7893 23.0391 15.4142 23.4142ZM8.58579 28.5858C8.96086 28.2107 9.46957 28 10 28H22C22.5304 28 23.0391 28.2107 23.4142 28.5858C23.7893 28.9609 24 29.4696 24 30C24 30.5304 23.7893 31.0391 23.4142 31.4142C23.0391 31.7893 22.5304 32 22 32H10C9.46957 32 8.96086 31.7893 8.58579 31.4142C8.21071 31.0391 8 30.5304 8 30C8 29.4696 8.21071 28.9609 8.58579 28.5858ZM6 0H34C35.5913 0 37.1174 0.632141 38.2426 1.75736C39.3679 2.88258 40 4.4087 40 6V34C40 35.5913 39.3679 37.1174 38.2426 38.2426C37.1174 39.3679 35.5913 40 34 40H6C4.4087 40 2.88258 39.3679 1.75736 38.2426C0.632141 37.1174 0 35.5913 0 34V6C0 4.4087 0.632141 2.88258 1.75736 1.75736C2.88258 0.632141 4.4087 0 6 0ZM30 4H34C34.5304 4 35.0391 4.21071 35.4142 4.58579C35.7893 4.96086 36 5.46957 36 6V34C36 34.5304 35.7893 35.0391 35.4142 35.4142C35.0391 35.7893 34.5304 36 34 36H6C5.46957 36 4.96086 35.7893 4.58579 35.4142C4.21071 35.0391 4 34.5304 4 34V6C4 5.46957 4.21071 4.96086 4.58579 4.58579C4.96086 4.21071 5.46957 4 6 4H12H16H30Z" fill="white"/>
<path d="M30 4V9.65224C30 9.83617 30.2274 9.92258 30.3495 9.78507L31.6915 8.27447C31.7798 8.17513 31.9386 8.18788 32.0099 8.30003L33.6312 10.8514C33.7386 11.0203 34 10.9443 34 10.7441V4H30Z" fill="white"/>
</svg>
