<svg width="40" height="40" viewBox="0 0 40 40" fill="none" xmlns="http://www.w3.org/2000/svg">
<path d="M10 24H14C14.5304 24 15.0391 23.7893 15.4142 23.4142C15.7893 23.0391 16 22.5304 16 22C16 21.4696 15.7893 20.9609 15.4142 20.5858C15.0391 20.2107 14.5304 20 14 20H10C9.46957 20 8.96086 20.2107 8.58579 20.5858C8.21071 20.9609 8 21.4696 8 22C8 22.5304 8.21071 23.0391 8.58579 23.4142C8.96086 23.7893 9.46957 24 10 24ZM22 28H10C9.46957 28 8.96086 28.2107 8.58579 28.5858C8.21071 28.9609 8 29.4696 8 30C8 30.5304 8.21071 31.0391 8.58579 31.4142C8.96086 31.7893 9.46957 32 10 32H22C22.5304 32 23.0391 31.7893 23.4142 31.4142C23.7893 31.0391 24 30.5304 24 30C24 29.4696 23.7893 28.9609 23.4142 28.5858C23.0391 28.2107 22.5304 28 22 28ZM34 0H6C4.4087 0 2.88258 0.632141 1.75736 1.75736C0.632141 2.88258 0 4.4087 0 6V34C0 35.5913 0.632141 37.1174 1.75736 38.2426C2.88258 39.3679 4.4087 40 6 40H34C35.5913 40 37.1174 39.3679 38.2426 38.2426C39.3679 37.1174 40 35.5913 40 34V6C40 4.4087 39.3679 2.88258 38.2426 1.75736C37.1174 0.632141 35.5913 0 34 0ZM24 4V10.58L20.98 8.9C20.676 8.72446 20.3311 8.63205 19.98 8.63205C19.6289 8.63205 19.284 8.72446 18.98 8.9L16 10.58V4H24ZM36 34C36 34.5304 35.7893 35.0391 35.4142 35.4142C35.0391 35.7893 34.5304 36 34 36H6C5.46957 36 4.96086 35.7893 4.58579 35.4142C4.21071 35.0391 4 34.5304 4 34V6C4 5.46957 4.21071 4.96086 4.58579 4.58579C4.96086 4.21071 5.46957 4 6 4H12V14C12.0021 14.349 12.0955 14.6914 12.2709 14.9932C12.4464 15.2949 12.6977 15.5455 13 15.72C13.304 15.8955 13.6489 15.9879 14 15.9879C14.3511 15.9879 14.696 15.8955 15 15.72L20 12.94L25.02 15.74C25.3189 15.9094 25.6564 15.9989 26 16C26.5304 16 27.0391 15.7893 27.4142 15.4142C27.7893 15.0391 28 14.5304 28 14V4H34C34.5304 4 35.0391 4.21071 35.4142 4.58579C35.7893 4.96086 36 5.46957 36 6V34Z" fill="white"/>
</svg>
