<svg width="44" height="35" viewBox="0 0 44 35" fill="none" xmlns="http://www.w3.org/2000/svg">
<path d="M22.6 17.9642C23.6672 17.0404 24.5231 15.8979 25.1097 14.6142C25.6964 13.3305 26 11.9356 26 10.5242C26 7.872 24.9464 5.32847 23.0711 3.4531C21.1957 1.57774 18.6522 0.52417 16 0.52417C13.3478 0.52417 10.8043 1.57774 8.92893 3.4531C7.05357 5.32847 6 7.872 6 10.5242C5.99998 11.9356 6.3036 13.3305 6.89025 14.6142C7.4769 15.8979 8.33284 17.0404 9.4 17.9642C6.60028 19.2319 4.22493 21.2792 2.55796 23.8613C0.89099 26.4433 0.00294371 29.4508 0 32.5242C0 33.0546 0.210714 33.5633 0.585786 33.9384C0.960859 34.3135 1.46957 34.5242 2 34.5242C2.53043 34.5242 3.03914 34.3135 3.41421 33.9384C3.78929 33.5633 4 33.0546 4 32.5242C4 29.3416 5.26428 26.2893 7.51472 24.0389C9.76516 21.7885 12.8174 20.5242 16 20.5242C19.1826 20.5242 22.2348 21.7885 24.4853 24.0389C26.7357 26.2893 28 29.3416 28 32.5242C28 33.0546 28.2107 33.5633 28.5858 33.9384C28.9609 34.3135 29.4696 34.5242 30 34.5242C30.5304 34.5242 31.0391 34.3135 31.4142 33.9384C31.7893 33.5633 32 33.0546 32 32.5242C31.9971 29.4508 31.109 26.4433 29.442 23.8613C27.7751 21.2792 25.3997 19.2319 22.6 17.9642ZM16 16.5242C14.8133 16.5242 13.6533 16.1723 12.6666 15.513C11.6799 14.8537 10.9108 13.9166 10.4567 12.8203C10.0026 11.7239 9.88378 10.5175 10.1153 9.35363C10.3468 8.18974 10.9182 7.12065 11.7574 6.28153C12.5965 5.44241 13.6656 4.87097 14.8295 4.63946C15.9933 4.40795 17.1997 4.52677 18.2961 4.98089C19.3925 5.43502 20.3295 6.20405 20.9888 7.19075C21.6481 8.17744 22 9.33748 22 10.5242C22 12.1155 21.3679 13.6416 20.2426 14.7668C19.1174 15.892 17.5913 16.5242 16 16.5242ZM35.48 17.1642C36.7599 15.7228 37.596 13.9423 37.8876 12.0368C38.1792 10.1314 37.9139 8.18232 37.1235 6.42417C36.3332 4.66602 35.0516 3.17376 33.4329 2.12702C31.8143 1.08027 29.9276 0.523655 28 0.52417C27.4696 0.52417 26.9609 0.734884 26.5858 1.10996C26.2107 1.48503 26 1.99374 26 2.52417C26 3.0546 26.2107 3.56331 26.5858 3.93838C26.9609 4.31346 27.4696 4.52417 28 4.52417C29.5913 4.52417 31.1174 5.15631 32.2426 6.28153C33.3679 7.40675 34 8.93287 34 10.5242C33.9972 11.5746 33.7186 12.606 33.1921 13.515C32.6657 14.424 31.9097 15.1789 31 15.7042C30.7035 15.8752 30.4558 16.1195 30.2807 16.4137C30.1056 16.7078 30.009 17.042 30 17.3842C29.9916 17.7237 30.0699 18.0598 30.2273 18.3607C30.3848 18.6616 30.6163 18.9175 30.9 19.1042L31.68 19.6242L31.94 19.7642C34.3508 20.9076 36.3846 22.7162 37.802 24.9768C39.2193 27.2374 39.9611 29.856 39.94 32.5242C39.94 33.0546 40.1507 33.5633 40.5258 33.9384C40.9009 34.3135 41.4096 34.5242 41.94 34.5242C42.4704 34.5242 42.9791 34.3135 43.3542 33.9384C43.7293 33.5633 43.94 33.0546 43.94 32.5242C43.9563 29.455 43.1876 26.4327 41.7069 23.7443C40.2262 21.0559 38.0827 18.7908 35.48 17.1642Z" fill="white"/>
</svg>
