<svg width="132" height="20" viewBox="0 0 132 20" fill="none" xmlns="http://www.w3.org/2000/svg">
<path d="M3.65 19.5C2.75 19.5 1.98333 19.1833 1.35 18.55C0.716667 17.9167 0.4 17.15 0.4 16.25V4.75C0.4 3.85 0.716667 3.08333 1.35 2.45C1.98333 1.81667 2.75 1.5 3.65 1.5H15.125C16.0417 1.5 16.8167 1.81667 17.45 2.45C18.0833 3.08333 18.4 3.85 18.4 4.75V5.825H15.675V5.125C15.675 4.75833 15.6083 4.51667 15.475 4.4C15.3583 4.26667 15.1167 4.2 14.75 4.2H4.025C3.65833 4.2 3.40833 4.26667 3.275 4.4C3.15833 4.51667 3.1 4.75833 3.1 5.125V15.875C3.1 16.2417 3.15833 16.4917 3.275 16.625C3.40833 16.7417 3.65833 16.8 4.025 16.8H14.75C15.1167 16.8 15.3583 16.7417 15.475 16.625C15.6083 16.4917 15.675 16.2417 15.675 15.875V12.35H11.425V9.625H18.4V16.25C18.4 17.15 18.0833 17.9167 17.45 18.55C16.8167 19.1833 16.0417 19.5 15.125 19.5H3.65ZM21.052 19.5V8.25C21.052 7.35 21.3686 6.58333 22.002 5.95C22.6353 5.31667 23.402 5 24.302 5H32.402V7.7H24.677C24.3103 7.7 24.0603 7.76667 23.927 7.9C23.8103 8.01667 23.752 8.25833 23.752 8.625V19.5H21.052ZM37.2896 19.5C36.3896 19.5 35.623 19.1833 34.9896 18.55C34.3563 17.9167 34.0396 17.15 34.0396 16.25V8.25C34.0396 7.35 34.3563 6.58333 34.9896 5.95C35.623 5.31667 36.3896 5 37.2896 5H45.5396C46.4396 5 47.2063 5.31667 47.8396 5.95C48.473 6.58333 48.7896 7.35 48.7896 8.25V13.6H36.7396V15.875C36.7396 16.2417 36.798 16.4917 36.9146 16.625C37.048 16.7417 37.298 16.8 37.6646 16.8H48.7896V19.5H37.2896ZM36.7396 11.075H46.0646V8.625C46.0646 8.25833 46.0063 8.01667 45.8896 7.9C45.773 7.76667 45.5313 7.7 45.1646 7.7H37.6646C37.298 7.7 37.048 7.76667 36.9146 7.9C36.798 8.01667 36.7396 8.25833 36.7396 8.625V11.075ZM54.6242 19.5C53.7242 19.5 52.9576 19.1833 52.3242 18.55C51.6909 17.9167 51.3742 17.15 51.3742 16.25V10.9H63.3992V8.625C63.3992 8.25833 63.3409 8.01667 63.2242 7.9C63.1076 7.76667 62.8659 7.7 62.4992 7.7H51.3742V5H62.8742C63.7742 5 64.5409 5.31667 65.1742 5.95C65.8076 6.58333 66.1242 7.35 66.1242 8.25V19.5H54.6242ZM54.9992 16.8H63.3992V13.425H54.0742V15.875C54.0742 16.2417 54.1326 16.4917 54.2492 16.625C54.3826 16.7417 54.6326 16.8 54.9992 16.8ZM75.5826 19.5V4.2H67.9326V1.5H85.9326V4.2H78.3076V19.5H75.5826ZM87.7023 19.5V5H90.4023V19.5H87.7023ZM87.7023 2.95V0.249999H90.4023V2.95H87.7023ZM93.1479 19.5V5H111.673C112.573 5 113.34 5.31667 113.973 5.95C114.606 6.58333 114.923 7.35 114.923 8.25V19.5H112.248V8.625C112.248 8.25833 112.181 8.01667 112.048 7.9C111.931 7.76667 111.69 7.7 111.323 7.7H106.348C105.965 7.7 105.715 7.76667 105.598 7.9C105.481 8.01667 105.423 8.25833 105.423 8.625V19.5H102.698V8.625C102.698 8.25833 102.631 8.01667 102.498 7.9C102.381 7.76667 102.14 7.7 101.773 7.7H96.7729C96.4062 7.7 96.1645 7.76667 96.0479 7.9C95.9312 8.01667 95.8729 8.25833 95.8729 8.625V19.5H93.1479ZM120.395 19.5C119.495 19.5 118.728 19.1833 118.095 18.55C117.462 17.9167 117.145 17.15 117.145 16.25V8.25C117.145 7.35 117.462 6.58333 118.095 5.95C118.728 5.31667 119.495 5 120.395 5H128.645C129.545 5 130.312 5.31667 130.945 5.95C131.578 6.58333 131.895 7.35 131.895 8.25V13.6H119.845V15.875C119.845 16.2417 119.903 16.4917 120.02 16.625C120.153 16.7417 120.403 16.8 120.77 16.8H131.895V19.5H120.395ZM119.845 11.075H129.17V8.625C129.17 8.25833 129.112 8.01667 128.995 7.9C128.878 7.76667 128.637 7.7 128.27 7.7H120.77C120.403 7.7 120.153 7.76667 120.02 7.9C119.903 8.01667 119.845 8.25833 119.845 8.625V11.075Z" fill="#333333"/>
</svg>
