<svg width="28" height="28" viewBox="0 0 28 28" fill="none" xmlns="http://www.w3.org/2000/svg">
<g clip-path="url(#clip0_3148_4536)">
<path d="M15.8905 27.9453H11.3978C10.6474 27.9453 10.037 27.3361 10.037 26.5871V16.4733H7.4158C6.66538 16.4733 6.05493 15.8639 6.05493 15.1151V10.7813C6.05493 10.0324 6.66538 9.42313 7.4158 9.42313H10.037V7.25293C10.037 5.10111 10.714 3.27036 11.9946 1.95892C13.281 0.64151 15.0787 -0.0546875 17.1934 -0.0546875L20.6198 -0.0491333C21.3689 -0.0478516 21.9783 0.561401 21.9783 1.30908V5.33289C21.9783 6.08185 21.3681 6.6911 20.6179 6.6911L18.3109 6.69196C17.6074 6.69196 17.4282 6.83273 17.3899 6.87589C17.3268 6.94745 17.2516 7.14975 17.2516 7.70837V9.42291H20.4445C20.6849 9.42291 20.9177 9.48209 21.1179 9.5936C21.5496 9.83435 21.818 10.2896 21.818 10.7816L21.8163 15.1153C21.8163 15.8639 21.2058 16.4731 20.4554 16.4731H17.2516V26.5871C17.2516 27.3361 16.641 27.9453 15.8905 27.9453ZM11.6816 26.3038H15.6067V15.7385C15.6067 15.2384 16.0145 14.8316 16.5153 14.8316H20.1716L20.1731 11.0646H16.5151C16.0143 11.0646 15.6067 10.6579 15.6067 10.1578V7.70837C15.6067 7.06708 15.672 6.33777 16.157 5.78961C16.7431 5.12695 17.6667 5.05048 18.3105 5.05048L20.3336 5.04962V1.59192L17.1921 1.58679C13.7936 1.58679 11.6816 3.75806 11.6816 7.25293V10.1578C11.6816 10.6577 11.2741 11.0646 10.7733 11.0646H7.69962V14.8316H10.7733C11.2741 14.8316 11.6816 15.2384 11.6816 15.7385V26.3038ZM20.6166 1.59235H20.6168H20.6166Z" fill="#F2F2F2"/>
</g>
<defs>
<clipPath id="clip0_3148_4536">
<rect width="28" height="28" fill="white"/>
</clipPath>
</defs>
</svg>
