<svg width="28" height="28" viewBox="0 0 28 28" fill="none" xmlns="http://www.w3.org/2000/svg">
<g id="instagram (2)" clip-path="url(#clip0_3148_4532)">
<path id="Vector" d="M20.4206 0H7.57933C3.40002 0 0 3.40002 0 7.57933V20.4208C0 24.5999 3.40002 27.9999 7.57933 27.9999H20.4208C24.5999 27.9999 27.9999 24.5999 27.9999 20.4208V7.57933C27.9999 3.40002 24.5999 0 20.4206 0V0ZM26.3585 20.4208C26.3585 23.6948 23.6948 26.3585 20.4206 26.3585H7.57933C4.30514 26.3585 1.64148 23.6948 1.64148 20.4208V7.57933C1.64148 4.30514 4.30514 1.64148 7.57933 1.64148H20.4208C23.6948 1.64148 26.3585 4.30514 26.3585 7.57933V20.4208Z" fill="#F2F2F2"/>
<path id="Vector_2" d="M14 6.34399C9.77834 6.34399 6.34393 9.77841 6.34393 14C6.34393 18.2216 9.77834 21.656 14 21.656C18.2216 21.656 21.656 18.2216 21.656 14C21.656 9.77841 18.2216 6.34399 14 6.34399ZM14 20.0146C10.6837 20.0146 7.98541 17.3165 7.98541 14C7.98541 10.6837 10.6837 7.98547 14 7.98547C17.3164 7.98547 20.0145 10.6837 20.0145 14C20.0145 17.3165 17.3164 20.0146 14 20.0146Z" fill="#F2F2F2"/>
<path id="Vector_3" d="M21.839 3.625C20.5915 3.625 19.5768 4.63992 19.5768 5.88726C19.5768 7.13482 20.5915 8.14974 21.839 8.14974C23.0866 8.14974 24.1015 7.13482 24.1015 5.88726C24.1015 4.63971 23.0866 3.625 21.839 3.625ZM21.839 6.50805C21.4968 6.50805 21.2183 6.22949 21.2183 5.88726C21.2183 5.54483 21.4968 5.26648 21.839 5.26648C22.1815 5.26648 22.46 5.54483 22.46 5.88726C22.46 6.22949 22.1815 6.50805 21.839 6.50805Z" fill="#F2F2F2"/>
</g>
<defs>
<clipPath id="clip0_3148_4532">
<rect width="28" height="28" fill="white"/>
</clipPath>
</defs>
</svg>
