<svg width="132" height="20" viewBox="0 0 132 20" fill="none" xmlns="http://www.w3.org/2000/svg">
<path d="M3.65 20C2.75 20 1.98333 19.6833 1.35 19.05C0.716667 18.4167 0.4 17.65 0.4 16.75V5.25C0.4 4.35 0.716667 3.58333 1.35 2.95C1.98333 2.31667 2.75 2 3.65 2H15.125C16.0417 2 16.8167 2.31667 17.45 2.95C18.0833 3.58333 18.4 4.35 18.4 5.25V6.325H15.675V5.625C15.675 5.25833 15.6083 5.01667 15.475 4.9C15.3583 4.76667 15.1167 4.7 14.75 4.7H4.025C3.65833 4.7 3.40833 4.76667 3.275 4.9C3.15833 5.01667 3.1 5.25833 3.1 5.625V16.375C3.1 16.7417 3.15833 16.9917 3.275 17.125C3.40833 17.2417 3.65833 17.3 4.025 17.3H14.75C15.1167 17.3 15.3583 17.2417 15.475 17.125C15.6083 16.9917 15.675 16.7417 15.675 16.375V12.85H11.425V10.125H18.4V16.75C18.4 17.65 18.0833 18.4167 17.45 19.05C16.8167 19.6833 16.0417 20 15.125 20H3.65ZM21.052 20V8.75C21.052 7.85 21.3686 7.08333 22.002 6.45C22.6353 5.81667 23.402 5.5 24.302 5.5H32.402V8.2H24.677C24.3103 8.2 24.0603 8.26667 23.927 8.4C23.8103 8.51667 23.752 8.75833 23.752 9.125V20H21.052ZM37.2896 20C36.3896 20 35.623 19.6833 34.9896 19.05C34.3563 18.4167 34.0396 17.65 34.0396 16.75V8.75C34.0396 7.85 34.3563 7.08333 34.9896 6.45C35.623 5.81667 36.3896 5.5 37.2896 5.5H45.5396C46.4396 5.5 47.2063 5.81667 47.8396 6.45C48.473 7.08333 48.7896 7.85 48.7896 8.75V14.1H36.7396V16.375C36.7396 16.7417 36.798 16.9917 36.9146 17.125C37.048 17.2417 37.298 17.3 37.6646 17.3H48.7896V20H37.2896ZM36.7396 11.575H46.0646V9.125C46.0646 8.75833 46.0063 8.51667 45.8896 8.4C45.773 8.26667 45.5313 8.2 45.1646 8.2H37.6646C37.298 8.2 37.048 8.26667 36.9146 8.4C36.798 8.51667 36.7396 8.75833 36.7396 9.125V11.575ZM54.6242 20C53.7242 20 52.9576 19.6833 52.3242 19.05C51.6909 18.4167 51.3742 17.65 51.3742 16.75V11.4H63.3992V9.125C63.3992 8.75833 63.3409 8.51667 63.2242 8.4C63.1076 8.26667 62.8659 8.2 62.4992 8.2H51.3742V5.5H62.8742C63.7742 5.5 64.5409 5.81667 65.1742 6.45C65.8076 7.08333 66.1242 7.85 66.1242 8.75V20H54.6242ZM54.9992 17.3H63.3992V13.925H54.0742V16.375C54.0742 16.7417 54.1326 16.9917 54.2492 17.125C54.3826 17.2417 54.6326 17.3 54.9992 17.3ZM75.5826 20V4.7H67.9326V2H85.9326V4.7H78.3076V20H75.5826ZM87.7023 20V5.5H90.4023V20H87.7023ZM87.7023 3.45V0.749999H90.4023V3.45H87.7023ZM93.1479 20V5.5H111.673C112.573 5.5 113.34 5.81667 113.973 6.45C114.606 7.08333 114.923 7.85 114.923 8.75V20H112.248V9.125C112.248 8.75833 112.181 8.51667 112.048 8.4C111.931 8.26667 111.69 8.2 111.323 8.2H106.348C105.965 8.2 105.715 8.26667 105.598 8.4C105.481 8.51667 105.423 8.75833 105.423 9.125V20H102.698V9.125C102.698 8.75833 102.631 8.51667 102.498 8.4C102.381 8.26667 102.14 8.2 101.773 8.2H96.7729C96.4062 8.2 96.1645 8.26667 96.0479 8.4C95.9312 8.51667 95.8729 8.75833 95.8729 9.125V20H93.1479ZM120.395 20C119.495 20 118.728 19.6833 118.095 19.05C117.462 18.4167 117.145 17.65 117.145 16.75V8.75C117.145 7.85 117.462 7.08333 118.095 6.45C118.728 5.81667 119.495 5.5 120.395 5.5H128.645C129.545 5.5 130.312 5.81667 130.945 6.45C131.578 7.08333 131.895 7.85 131.895 8.75V14.1H119.845V16.375C119.845 16.7417 119.903 16.9917 120.02 17.125C120.153 17.2417 120.403 17.3 120.77 17.3H131.895V20H120.395ZM119.845 11.575H129.17V9.125C129.17 8.75833 129.112 8.51667 128.995 8.4C128.878 8.26667 128.637 8.2 128.27 8.2H120.77C120.403 8.2 120.153 8.26667 120.02 8.4C119.903 8.51667 119.845 8.75833 119.845 9.125V11.575Z" fill="white"/>
</svg>
