<svg width="20" height="21" viewBox="0 0 20 21" fill="none" xmlns="http://www.w3.org/2000/svg">
<path d="M10.6283 4.00997C10.8767 4.25347 10.8993 4.63451 10.6961 4.90301L10.6283 4.97994L5.02207 10.4757L10.6283 15.9716C10.8767 16.2151 10.8993 16.5961 10.6961 16.8646L10.6283 16.9415C10.38 17.185 9.99127 17.2072 9.71738 17.0079L9.63891 16.9415L3.53817 10.9607C3.28978 10.7172 3.2672 10.3362 3.47043 10.0677L3.53817 9.99076L9.63891 4.00997C9.91214 3.74212 10.3551 3.74212 10.6283 4.00997Z" fill="#828282"/>
<path d="M16.4616 4.00997C16.71 4.25347 16.7326 4.63451 16.5293 4.90301L16.4616 4.97994L10.8553 10.4757L16.4616 15.9716C16.71 16.2151 16.7326 16.5961 16.5293 16.8646L16.4616 16.9415C16.2132 17.185 15.8245 17.2072 15.5506 17.0079L15.4722 16.9415L9.37142 10.9607C9.12304 10.7172 9.10046 10.3362 9.30368 10.0677L9.37142 9.99076L15.4722 4.00997C15.7454 3.74212 16.1884 3.74212 16.4616 4.00997Z" fill="#828282"/>
</svg>
