<svg width="16" height="16" viewBox="0 0 16 16" fill="none" xmlns="http://www.w3.org/2000/svg">
<g clip-path="url(#clip0_3109_4293)">
<path d="M8.00015 0.39138L10.472 5.40046L16 6.20392L11.9999 10.1027L12.9442 15.6084L8.00015 13.0091L3.05582 15.6084L4.00007 10.1027L0 6.20392L5.52799 5.40046L8.00015 0.39138Z" fill="#FFB745"/>
<path d="M3.23255 15.6223C3.17326 15.6223 3.11398 15.604 3.06415 15.5676C2.97594 15.5035 2.93183 15.3949 2.95045 15.2876L3.83569 10.1273L0.0865021 6.47319C0.00860282 6.39701 -0.0194638 6.28331 0.0140443 6.17992C0.0478389 6.07624 0.13748 6.00064 0.245451 5.98489L5.42633 5.23195L7.74354 0.537089C7.79166 0.439142 7.89132 0.377281 8.00015 0.377281C8.10927 0.377281 8.20894 0.439142 8.25676 0.537089L10.5737 5.23195L15.7549 5.98489C15.8628 6.00064 15.9522 6.07596 15.9863 6.17992C16.0198 6.28331 15.992 6.39729 15.9138 6.47319L12.1646 10.1279L13.0496 15.2878C13.0679 15.3952 13.0238 15.5038 12.9359 15.5679C12.8477 15.6327 12.7305 15.641 12.634 15.5897L8.00015 13.1536L3.36572 15.5897C3.3239 15.6115 3.27808 15.6223 3.23255 15.6223ZM0.901867 6.46803L4.34318 9.82257C4.41049 9.88815 4.44142 9.98324 4.42538 10.076L3.61288 14.8124L7.86698 12.5763C7.95032 12.5321 8.0497 12.5321 8.13361 12.5763L12.3871 14.8124L11.5749 10.076C11.5589 9.98324 11.5898 9.88844 11.6571 9.82257L15.0984 6.46803L10.3429 5.77696C10.2495 5.7635 10.169 5.70479 10.1272 5.62031L8.00015 1.31121L5.8731 5.62059C5.83129 5.70508 5.75081 5.76379 5.65745 5.77725L0.901867 6.46803Z" fill="#FFB745"/>
</g>
<defs>
<clipPath id="clip0_3109_4293">
<rect width="16" height="16" fill="white"/>
</clipPath>
</defs>
</svg>
