<svg width="24" height="21" viewBox="0 0 24 21" fill="none" xmlns="http://www.w3.org/2000/svg">
<path d="M21.8113 0.297746C21.5304 0.318182 21.2547 0.384081 20.9949 0.492871H20.9914C20.742 0.591746 19.5564 1.0905 17.7539 1.8465L11.2947 4.56687C6.65979 6.51812 2.10367 8.43962 2.10367 8.43962L2.15792 8.41862C2.15792 8.41862 1.84379 8.52187 1.51567 8.74675C1.31295 8.87574 1.13852 9.04452 1.00292 9.24287C0.841918 9.47912 0.712418 9.8405 0.760543 10.2141C0.839293 10.8459 1.24879 11.2247 1.54279 11.4339C1.84029 11.6456 2.12379 11.7445 2.12379 11.7445H2.13079L6.40342 13.1839C6.59504 13.799 7.70542 17.4495 7.97229 18.2904C8.12979 18.7926 8.28292 19.1067 8.47454 19.3465C8.56729 19.469 8.67579 19.5714 8.80617 19.6536C8.87395 19.693 8.94621 19.7242 9.02142 19.7464L8.97767 19.7359C8.99079 19.7394 9.00129 19.7499 9.01092 19.7534C9.04592 19.763 9.06954 19.7665 9.11417 19.7735C9.79054 19.9782 10.3339 19.5582 10.3339 19.5582L10.3645 19.5337L12.8872 17.2369L17.1152 20.4805L17.2114 20.5216C18.0925 20.9084 18.985 20.6931 19.4567 20.3134C19.9318 19.931 20.1164 19.4419 20.1164 19.4419L20.147 19.3631L23.4143 2.62525C23.507 2.21225 23.5307 1.8255 23.4283 1.45012C23.3227 1.07022 23.079 0.743477 22.7449 0.533996C22.4644 0.363472 22.1391 0.281164 21.8113 0.297746ZM21.7229 2.0915C21.7194 2.14662 21.7299 2.1405 21.7054 2.24637V2.256L18.4688 18.8197C18.4548 18.8434 18.4312 18.895 18.3664 18.9466C18.2982 19.0009 18.2439 19.035 17.9595 18.9221L12.7883 14.9575L9.66454 17.8047L10.3208 13.6135L18.7698 5.7385C19.118 5.41475 19.0017 5.3465 19.0017 5.3465C19.0262 4.94925 18.4758 5.23012 18.4758 5.23012L7.82179 11.8302L7.81829 11.8127L2.71179 10.0934V10.0899L2.69867 10.0872C2.70762 10.0843 2.71639 10.0808 2.72492 10.0767L2.75292 10.0627L2.78004 10.0531C2.78004 10.0531 7.33967 8.13162 11.9745 6.18037C14.295 5.203 16.633 4.21862 18.4312 3.45912C20.2293 2.704 21.5584 2.15012 21.6337 2.12037C21.7054 2.09237 21.6713 2.09237 21.7229 2.09237V2.0915Z" fill="#153E84"/>
</svg>
