<svg width="28" height="28" viewBox="0 0 28 28" fill="none" xmlns="http://www.w3.org/2000/svg">
<path fill-rule="evenodd" clip-rule="evenodd" d="M11.4776 8.42813C11.2448 7.80891 10.9758 7.8531 10.7968 7.84631C10.6176 7.8397 10.4607 7.84298 10.2186 7.84692C10.0137 7.85025 9.67814 7.90302 9.38556 8.19763C9.0926 8.49174 8.27179 9.19906 8.21503 10.6982C8.15865 12.1971 9.20378 13.6865 9.34974 13.895C9.49559 14.1042 11.3455 17.3532 14.4203 18.6894C17.4954 20.0253 17.5115 19.6181 18.0756 19.5882C18.6403 19.5587 19.92 18.9185 20.2029 18.217C20.4858 17.5156 20.5085 16.9057 20.4365 16.7756C20.3645 16.6459 20.163 16.5617 19.8617 16.3982C19.5601 16.2344 18.0792 15.4413 17.8015 15.3291C17.5236 15.2173 17.3209 15.1591 17.1046 15.4565C16.8882 15.753 16.2739 16.4173 16.0877 16.6141C15.9006 16.811 15.7207 16.8292 15.4191 16.6649C15.1183 16.5015 14.1409 16.1428 13.0075 15.0617C12.1256 14.2206 11.5467 13.1999 11.3789 12.8886C11.2111 12.5771 11.3778 12.4181 11.5375 12.2723C11.6807 12.1407 11.8578 11.9278 12.0183 11.7556C12.178 11.5834 12.2343 11.4586 12.3443 11.2589C12.4541 11.0595 12.4099 10.8798 12.3387 10.7245C12.2675 10.5693 11.7104 9.04736 11.4776 8.42813Z" fill="#F2F2F2"/>
<path d="M14.2221 3.5C16.9701 3.5 19.553 4.56105 21.4946 6.48769C23.4326 8.41072 24.5 10.9666 24.5 13.6846C24.5 16.4022 23.4326 18.9581 21.4946 20.8812C19.5528 22.808 16.97 23.8692 14.2221 23.8692C12.4827 23.8692 10.7637 23.4304 9.25072 22.6004L8.59354 22.2398L7.87915 22.4667L4.5185 23.5343L5.57807 20.409L5.84046 19.6351L5.41548 18.9371C4.45336 17.3568 3.94482 15.5404 3.94482 13.6846C3.94482 10.9666 5.01222 8.41072 6.95029 6.48763C8.89196 4.56105 11.4745 3.5 14.2221 3.5ZM14.2221 1.75C7.57996 1.75 2.19482 7.09302 2.19482 13.6846C2.19482 15.9393 2.82548 18.0481 3.92071 19.8471L2.38495 24.3771C2.1217 25.1536 2.85337 25.8995 3.63477 25.6512L8.40897 24.1346C10.1321 25.0799 12.1138 25.6191 14.2221 25.6191C20.8652 25.6191 26.25 20.2753 26.25 13.6846C26.25 7.09302 20.8652 1.75 14.2221 1.75Z" fill="#F2F2F2"/>
</svg>
