<svg width="28" height="29" viewBox="0 0 28 29" fill="none" xmlns="http://www.w3.org/2000/svg">
<path fill-rule="evenodd" clip-rule="evenodd" d="M11.4777 9.2294C11.2448 8.61018 10.9759 8.65437 10.7968 8.64758C10.6176 8.64097 10.4607 8.64425 10.2186 8.64818C10.0138 8.65152 9.6782 8.70429 9.38562 8.9989C9.09266 9.29301 8.27186 10.0003 8.21509 11.4995C8.15871 12.9984 9.20384 14.4878 9.3498 14.6962C9.49565 14.9055 11.3456 18.1545 14.4204 19.4907C17.4955 20.8265 17.5116 20.4193 18.0757 20.3895C18.6403 20.36 19.9201 19.7198 20.203 19.0183C20.4858 18.3168 20.5086 17.707 20.4365 17.5768C20.3646 17.4472 20.1631 17.363 19.8618 17.1995C19.5601 17.0357 18.0792 16.2426 17.8015 16.1304C17.5237 16.0186 17.321 15.9604 17.1047 16.2577C16.8883 16.5542 16.2739 17.2185 16.0877 17.4154C15.9007 17.6122 15.7207 17.6305 15.4191 17.4662C15.1183 17.3028 14.1409 16.9441 13.0075 15.8629C12.1256 15.0218 11.5468 14.0012 11.379 13.6899C11.2111 13.3783 11.3779 13.2193 11.5376 13.0736C11.6807 12.942 11.8579 12.729 12.0184 12.5569C12.178 12.3847 12.2343 12.2599 12.3444 12.0601C12.4541 11.8608 12.41 11.681 12.3388 11.5258C12.2675 11.3706 11.7104 9.84863 11.4777 9.2294Z" fill="#153E84"/>
<path d="M14.2221 4.30127C16.9701 4.30127 19.553 5.36232 21.4946 7.28896C23.4326 9.21199 24.5 11.7679 24.5 14.4858C24.5 17.2035 23.4326 19.7593 21.4946 21.6825C19.5528 23.6092 16.97 24.6704 14.2221 24.6704C12.4827 24.6704 10.7637 24.2317 9.25072 23.4016L8.59354 23.0411L7.87915 23.268L4.5185 24.3356L5.57807 21.2103L5.84046 20.4364L5.41548 19.7384C4.45336 18.158 3.94482 16.3417 3.94482 14.4858C3.94482 11.7679 5.01222 9.21199 6.95029 7.2889C8.89196 5.36232 11.4745 4.30127 14.2221 4.30127ZM14.2221 2.55127C7.57996 2.55127 2.19482 7.89429 2.19482 14.4858C2.19482 16.7405 2.82548 18.8494 3.92071 20.6484L2.38495 25.1784C2.1217 25.9549 2.85337 26.7008 3.63477 26.4525L8.40897 24.9358C10.1321 25.8811 12.1138 26.4204 14.2221 26.4204C20.8652 26.4204 26.25 21.0766 26.25 14.4858C26.25 7.89429 20.8652 2.55127 14.2221 2.55127Z" fill="#153E84"/>
</svg>
